# xmcd
#
# Track frame offsets:
#	150
#	11359
#	20597
#	32411
#	45622
#	61320
#	77833
#	90956
#	101736
#	117385
#	130863
#	148641
#	163925
#	179423
#	193530
#	209343
#	225423
#	240372
#	254649
#	271405
#
# Disc length: 3818 seconds
#
# Revision: 0
# Processed by: cddbd v1.5.2PL0 Copyright (c) Steve Scherf et al.
# Submitted via: audiograbber 1.83.01
#
DISCID=0b0ee814
DTITLE=Texas Country  Line Band - Dancin' Texas Style
DYEAR=1900
DGENRE=Country
TTITLE0=Cotton-Eyed Joe
TTITLE1=Texas Schottische
TTITLE2=Waltz Across Texas
TTITLE3=Lone Star Polka
TTITLE4=San Antonio Rose
TTITLE5=Faded Love
TTITLE6=Crazy
TTITLE7=Oraange Blossom Special
TTITLE8=Four In The Morning
TTITLE9=City Light
TTITLE10=Make The World Go Away
TTITLE11=Maiden's Prayer
TTITLE12=For The Good Time
TTITLE13=Mathilda
TTITLE14=Silver Wings
TTITLE15=Marie Laveau
TTITLE16=Unchanined Melody
TTITLE17=All These Things
TTITLE18=Behand Closed Doors
TTITLE19=Blue Spanish Eyes
EXTD=
EXTT0=
EXTT1=
EXTT2=
EXTT3=
EXTT4=
EXTT5=
EXTT6=
EXTT7=
EXTT8=
EXTT9=
EXTT10=
EXTT11=
EXTT12=
EXTT13=
EXTT14=
EXTT15=
EXTT16=
EXTT17=
EXTT18=
EXTT19=
PLAYORDER=
